<mxfile host="app.diagrams.net" modified="2024-06-21T12:12:29.216Z" agent="Mozilla/5.0 (Windows NT 10.0; Win64; x64) AppleWebKit/537.36 (KHTML, like Gecko) Chrome/126.0.0.0 Safari/537.36 Edg/126.0.0.0" etag="NulEo55lXgjXkBcfhi5m" version="24.5.5" type="github">
  <diagram name="Page-1" id="sKITD_88z1vJ94t6zKOO">
    <mxGraphModel dx="1591" dy="785" grid="1" gridSize="10" guides="1" tooltips="1" connect="1" arrows="1" fold="1" page="1" pageScale="1" pageWidth="850" pageHeight="1100" math="0" shadow="0">
      <root>
        <mxCell id="0" />
        <mxCell id="1" parent="0" />
        <mxCell id="syWPXiomNhrmmpA-TFZg-3" value="&lt;span style=&quot;color: rgb(51, 51, 51);&quot;&gt;&lt;b&gt;&lt;u&gt;0100 Generate Database Information Execution&lt;/u&gt;&lt;/b&gt;&lt;/span&gt;&lt;div&gt;&lt;font color=&quot;#333333&quot;&gt;01_download_vw_sqlcmd_create_insert_database_statements.py&lt;/font&gt;&lt;br&gt;&lt;/div&gt;&lt;div&gt;&lt;font color=&quot;#333333&quot;&gt;02_execute_insert_database_information.py&lt;br&gt;&lt;/font&gt;&lt;/div&gt;" style="rounded=0;whiteSpace=wrap;html=1;fillColor=#f8cecc;strokeColor=#b85450;" parent="1" vertex="1">
          <mxGeometry x="110" y="120" width="370" height="50" as="geometry" />
        </mxCell>
        <mxCell id="syWPXiomNhrmmpA-TFZg-79" style="edgeStyle=orthogonalEdgeStyle;rounded=0;orthogonalLoop=1;jettySize=auto;html=1;strokeWidth=3;" parent="1" source="syWPXiomNhrmmpA-TFZg-4" target="syWPXiomNhrmmpA-TFZg-3" edge="1">
          <mxGeometry relative="1" as="geometry" />
        </mxCell>
        <mxCell id="syWPXiomNhrmmpA-TFZg-80" style="edgeStyle=orthogonalEdgeStyle;rounded=0;orthogonalLoop=1;jettySize=auto;html=1;strokeWidth=3;" parent="1" source="syWPXiomNhrmmpA-TFZg-4" target="syWPXiomNhrmmpA-TFZg-8" edge="1">
          <mxGeometry relative="1" as="geometry" />
        </mxCell>
        <mxCell id="syWPXiomNhrmmpA-TFZg-4" value="&lt;span style=&quot;color: rgb(51, 51, 51);&quot;&gt;&lt;b&gt;Input Data Into Information Database&lt;/b&gt;&lt;/span&gt;" style="rounded=0;whiteSpace=wrap;html=1;points=[[0,0,0,0,0],[0,0.25,0,0,0],[0,0.5,0,0,0],[0,0.75,0,0,0],[0,1,0,0,0],[0.25,0,0,0,0],[0.25,1,0,0,0],[0.5,0,0,0,0],[0.5,1,0,0,0],[0.75,0,0,0,0],[0.75,1,0,0,0],[1,0,0,0,0],[1,0.25,0,0,0],[1,0.5,0,0,0],[1,0.75,0,0,0],[1,1,0,0,0]];fillColor=#f5f5f5;fontColor=#333333;strokeColor=#666666;" parent="1" vertex="1">
          <mxGeometry x="290" y="30" width="305" height="35" as="geometry" />
        </mxCell>
        <mxCell id="syWPXiomNhrmmpA-TFZg-31" style="edgeStyle=orthogonalEdgeStyle;rounded=0;orthogonalLoop=1;jettySize=auto;html=1;strokeWidth=3;" parent="1" source="syWPXiomNhrmmpA-TFZg-5" target="syWPXiomNhrmmpA-TFZg-6" edge="1">
          <mxGeometry relative="1" as="geometry">
            <Array as="points">
              <mxPoint x="230" y="340" />
              <mxPoint x="425" y="340" />
            </Array>
          </mxGeometry>
        </mxCell>
        <mxCell id="syWPXiomNhrmmpA-TFZg-5" value="&lt;span style=&quot;color: rgb(51, 51, 51);&quot;&gt;&lt;b&gt;&lt;u&gt;0200 Generate Source DDL Scripts Build&lt;/u&gt;&lt;/b&gt;&lt;/span&gt;&lt;div&gt;&lt;font color=&quot;#333333&quot;&gt;01_populate_generate_ddl_scripts_batch&lt;/font&gt;&lt;br&gt;&lt;/div&gt;&lt;div&gt;&lt;font color=&quot;#333333&quot;&gt;02_move_batch_scripts_to_completed.py&lt;br&gt;&lt;/font&gt;&lt;/div&gt;&lt;div&gt;&lt;font color=&quot;#333333&quot;&gt;03_modify_batch_template.py&lt;br&gt;&lt;/font&gt;&lt;/div&gt;&lt;div&gt;&lt;font color=&quot;#333333&quot;&gt;04_create_folder_structure_batch_file.py&lt;/font&gt;&lt;/div&gt;" style="rounded=0;whiteSpace=wrap;html=1;fillColor=#f8cecc;strokeColor=#b85450;" parent="1" vertex="1">
          <mxGeometry x="110" y="220" width="260" height="85" as="geometry" />
        </mxCell>
        <mxCell id="syWPXiomNhrmmpA-TFZg-37" style="edgeStyle=orthogonalEdgeStyle;rounded=0;orthogonalLoop=1;jettySize=auto;html=1;strokeWidth=3;" parent="1" source="syWPXiomNhrmmpA-TFZg-6" target="syWPXiomNhrmmpA-TFZg-9" edge="1">
          <mxGeometry relative="1" as="geometry" />
        </mxCell>
        <mxCell id="rylidvbhO6okRbjTieRh-3" style="edgeStyle=orthogonalEdgeStyle;rounded=0;orthogonalLoop=1;jettySize=auto;html=1;strokeWidth=3;" edge="1" parent="1" source="syWPXiomNhrmmpA-TFZg-6" target="syWPXiomNhrmmpA-TFZg-15">
          <mxGeometry relative="1" as="geometry">
            <Array as="points">
              <mxPoint x="204" y="410" />
            </Array>
          </mxGeometry>
        </mxCell>
        <mxCell id="syWPXiomNhrmmpA-TFZg-6" value="&lt;span style=&quot;color: rgb(51, 51, 51);&quot;&gt;&lt;b&gt;&lt;u&gt;0300 Generate DDL Scripts Execution&lt;/u&gt;&lt;/b&gt;&lt;/span&gt;&lt;div&gt;&lt;font color=&quot;#333333&quot;&gt;05_execute_master_batch_files.py&lt;/font&gt;&lt;br&gt;&lt;/div&gt;" style="rounded=0;whiteSpace=wrap;html=1;fillColor=#d5e8d4;strokeColor=#82b366;" parent="1" vertex="1">
          <mxGeometry x="337.5" y="385" width="240" height="40" as="geometry" />
        </mxCell>
        <mxCell id="syWPXiomNhrmmpA-TFZg-36" style="edgeStyle=orthogonalEdgeStyle;rounded=0;orthogonalLoop=1;jettySize=auto;html=1;strokeWidth=3;" parent="1" source="syWPXiomNhrmmpA-TFZg-7" target="syWPXiomNhrmmpA-TFZg-11" edge="1">
          <mxGeometry relative="1" as="geometry">
            <Array as="points">
              <mxPoint x="700" y="660" />
            </Array>
          </mxGeometry>
        </mxCell>
        <mxCell id="syWPXiomNhrmmpA-TFZg-8" value="&lt;span style=&quot;color: rgb(51, 51, 51);&quot;&gt;&lt;b&gt;&lt;u&gt;0500 Set Babelfish Escape Hatches&lt;/u&gt;&lt;/b&gt;&lt;/span&gt;&lt;div&gt;&lt;font color=&quot;#333333&quot;&gt;01_create_target_set_babelfish_batch_script.py&lt;/font&gt;&lt;br&gt;&lt;/div&gt;" style="rounded=0;whiteSpace=wrap;html=1;fillColor=#f8cecc;strokeColor=#b85450;" parent="1" vertex="1">
          <mxGeometry x="500" y="120" width="290" height="40" as="geometry" />
        </mxCell>
        <mxCell id="syWPXiomNhrmmpA-TFZg-38" style="edgeStyle=orthogonalEdgeStyle;rounded=0;orthogonalLoop=1;jettySize=auto;html=1;strokeWidth=3;" parent="1" source="syWPXiomNhrmmpA-TFZg-9" target="syWPXiomNhrmmpA-TFZg-10" edge="1">
          <mxGeometry relative="1" as="geometry" />
        </mxCell>
        <mxCell id="syWPXiomNhrmmpA-TFZg-9" value="&lt;span style=&quot;color: rgb(51, 51, 51);&quot;&gt;&lt;b&gt;&lt;u&gt;0600 Modify DDL Tables Scripts for Babelfish Compliance&lt;/u&gt;&lt;/b&gt;&lt;/span&gt;&lt;div&gt;&lt;font style=&quot;&quot; color=&quot;#333333&quot;&gt;01_save_folder_tables.py&lt;/font&gt;&lt;br&gt;&lt;/div&gt;&lt;div&gt;&lt;font style=&quot;&quot; color=&quot;#333333&quot;&gt;02_copy_rename_tablesfull&lt;br&gt;&lt;/font&gt;&lt;/div&gt;&lt;div&gt;&lt;font style=&quot;&quot; color=&quot;#333333&quot;&gt;03_create_table_elements.py&lt;br&gt;&lt;/font&gt;&lt;/div&gt;&lt;div&gt;&lt;font style=&quot;&quot; color=&quot;#333333&quot;&gt;04_modify_tables_babelfish_compliant.py&lt;/font&gt;&lt;/div&gt;" style="rounded=0;whiteSpace=wrap;html=1;fillColor=#f8cecc;strokeColor=#b85450;" parent="1" vertex="1">
          <mxGeometry x="272.5" y="490" width="340" height="80" as="geometry" />
        </mxCell>
        <mxCell id="syWPXiomNhrmmpA-TFZg-39" value="" style="edgeStyle=orthogonalEdgeStyle;rounded=0;orthogonalLoop=1;jettySize=auto;html=1;strokeWidth=3;" parent="1" source="syWPXiomNhrmmpA-TFZg-10" target="syWPXiomNhrmmpA-TFZg-11" edge="1">
          <mxGeometry relative="1" as="geometry" />
        </mxCell>
        <mxCell id="syWPXiomNhrmmpA-TFZg-10" value="&lt;span style=&quot;color: rgb(51, 51, 51);&quot;&gt;&lt;b&gt;&lt;u&gt;0700 Create Master SQLCMD files&lt;/u&gt;&lt;/b&gt;&lt;/span&gt;&lt;div&gt;&lt;font style=&quot;&quot; color=&quot;#333333&quot;&gt;05_create_deployment_tables_sqlcmd_mode.py&lt;/font&gt;&lt;br&gt;&lt;/div&gt;&lt;div&gt;06_create_deployment_tableelements_sqlcmd_mode.py&lt;br&gt;&lt;/div&gt;" style="rounded=0;whiteSpace=wrap;html=1;fillColor=#f8cecc;strokeColor=#b85450;" parent="1" vertex="1">
          <mxGeometry x="346.255" y="620" width="323.75" height="50" as="geometry" />
        </mxCell>
        <mxCell id="syWPXiomNhrmmpA-TFZg-83" style="edgeStyle=orthogonalEdgeStyle;rounded=0;orthogonalLoop=1;jettySize=auto;html=1;strokeWidth=3;" parent="1" source="syWPXiomNhrmmpA-TFZg-11" target="syWPXiomNhrmmpA-TFZg-12" edge="1">
          <mxGeometry relative="1" as="geometry" />
        </mxCell>
        <mxCell id="syWPXiomNhrmmpA-TFZg-11" value="&lt;span style=&quot;color: rgb(51, 51, 51);&quot;&gt;&lt;b&gt;&lt;u&gt;0800 Deploy DDL Tables Build&lt;/u&gt;&lt;/b&gt;&lt;/span&gt;&lt;div&gt;&lt;font color=&quot;#333333&quot;&gt;01_download_target_login_information.py&lt;/font&gt;&lt;br&gt;&lt;/div&gt;&lt;div&gt;&lt;font color=&quot;#333333&quot;&gt;02_modify_batch_template.py&lt;br&gt;&lt;/font&gt;&lt;/div&gt;&lt;div&gt;&lt;font color=&quot;#333333&quot;&gt;03_create_master_sqlcmd_files.py&lt;/font&gt;&lt;/div&gt;&lt;div&gt;&lt;font color=&quot;#333333&quot;&gt;04_create_master_batch_files.py&lt;br&gt;&lt;/font&gt;&lt;/div&gt;&lt;div&gt;&lt;font color=&quot;#333333&quot;&gt;05_truncate_deploy_ddl_tables_batch.py&lt;br&gt;&lt;/font&gt;&lt;/div&gt;&lt;div&gt;&lt;font color=&quot;#333333&quot;&gt;06_insert_deploy_ddl_tables_batch.py&lt;br&gt;&lt;/font&gt;&lt;/div&gt;" style="rounded=0;whiteSpace=wrap;html=1;fillColor=#f8cecc;strokeColor=#b85450;" parent="1" vertex="1">
          <mxGeometry x="663.75" y="710" width="240" height="110" as="geometry" />
        </mxCell>
        <mxCell id="syWPXiomNhrmmpA-TFZg-12" value="&lt;span style=&quot;color: rgb(51, 51, 51);&quot;&gt;&lt;b style=&quot;&quot;&gt;&lt;u style=&quot;&quot;&gt;&lt;font style=&quot;font-size: 12px;&quot;&gt;0900 Deploy DDL Tables Execution&lt;/font&gt;&lt;/u&gt;&lt;/b&gt;&lt;/span&gt;&lt;div style=&quot;&quot;&gt;&lt;font style=&quot;font-size: 12px;&quot; color=&quot;#333333&quot;&gt;07_execute_ddl_tables_batch_files.py&lt;/font&gt;&lt;br&gt;&lt;/div&gt;" style="rounded=0;whiteSpace=wrap;html=1;fillColor=#d5e8d4;strokeColor=#82b366;" parent="1" vertex="1">
          <mxGeometry x="582.5" y="900" width="240" height="40" as="geometry" />
        </mxCell>
        <mxCell id="syWPXiomNhrmmpA-TFZg-13" value="&lt;span style=&quot;color: rgb(51, 51, 51);&quot;&gt;&lt;b&gt;&lt;u&gt;1000 Deploy DDL Table Elements Build&lt;/u&gt;&lt;/b&gt;&lt;/span&gt;&lt;div&gt;&lt;font style=&quot;&quot; color=&quot;#333333&quot;&gt;01_download_target_login_information.py&lt;/font&gt;&lt;br&gt;&lt;/div&gt;&lt;div&gt;&lt;font color=&quot;#333333&quot;&gt;02_modify_batch_template.py&lt;/font&gt;&lt;/div&gt;&lt;div&gt;&lt;font color=&quot;#333333&quot;&gt;03_create_master_batch_files.py&lt;br&gt;&lt;/font&gt;&lt;/div&gt;&lt;div&gt;&lt;font color=&quot;#333333&quot;&gt;04_truncate_deploy_ddl_tableelements_batch.py&lt;br&gt;&lt;/font&gt;&lt;/div&gt;&lt;div&gt;&lt;font color=&quot;#333333&quot;&gt;05_insert_deploy_ddl_tableelements_batch.py&lt;/font&gt;&lt;/div&gt;" style="rounded=0;whiteSpace=wrap;html=1;fillColor=#f8cecc;strokeColor=#b85450;" parent="1" vertex="1">
          <mxGeometry x="346.25" y="750" width="280" height="100" as="geometry" />
        </mxCell>
        <mxCell id="syWPXiomNhrmmpA-TFZg-14" value="&lt;span style=&quot;color: rgb(51, 51, 51);&quot;&gt;&lt;b&gt;&lt;u&gt;1100 Deploy DDL Table Elements Execution&lt;/u&gt;&lt;/b&gt;&lt;/span&gt;&lt;div&gt;&lt;font color=&quot;#333333&quot;&gt;06_execute_ddl_tableelements_batch_files.py&lt;/font&gt;&lt;br&gt;&lt;/div&gt;" style="rounded=0;whiteSpace=wrap;html=1;fillColor=#d5e8d4;strokeColor=#82b366;" parent="1" vertex="1">
          <mxGeometry x="510" y="1085" width="310" height="40" as="geometry" />
        </mxCell>
        <mxCell id="syWPXiomNhrmmpA-TFZg-46" style="edgeStyle=orthogonalEdgeStyle;rounded=0;orthogonalLoop=1;jettySize=auto;html=1;entryX=0.5;entryY=0;entryDx=0;entryDy=0;strokeWidth=3;" parent="1" source="syWPXiomNhrmmpA-TFZg-15" target="syWPXiomNhrmmpA-TFZg-16" edge="1">
          <mxGeometry relative="1" as="geometry" />
        </mxCell>
        <mxCell id="syWPXiomNhrmmpA-TFZg-15" value="&lt;span style=&quot;color: rgb(51, 51, 51);&quot;&gt;&lt;b&gt;&lt;u&gt;1200 Generate DB Dependencies Build&lt;/u&gt;&lt;/b&gt;&lt;/span&gt;&lt;div&gt;&lt;font color=&quot;#333333&quot;&gt;01_insert_dd_dependencies_batch.py&lt;/font&gt;&lt;br&gt;&lt;/div&gt;" style="rounded=0;whiteSpace=wrap;html=1;fillColor=#f8cecc;strokeColor=#b85450;" parent="1" vertex="1">
          <mxGeometry x="80" y="600" width="247.5" height="40" as="geometry" />
        </mxCell>
        <mxCell id="syWPXiomNhrmmpA-TFZg-86" style="edgeStyle=orthogonalEdgeStyle;rounded=0;orthogonalLoop=1;jettySize=auto;html=1;entryX=0.5;entryY=0;entryDx=0;entryDy=0;strokeWidth=3;" parent="1" source="syWPXiomNhrmmpA-TFZg-16" target="syWPXiomNhrmmpA-TFZg-17" edge="1">
          <mxGeometry relative="1" as="geometry" />
        </mxCell>
        <mxCell id="syWPXiomNhrmmpA-TFZg-16" value="&lt;span style=&quot;color: rgb(51, 51, 51);&quot;&gt;&lt;b&gt;&lt;u&gt;1300 Determine DB Dependencies&lt;/u&gt;&lt;/b&gt;&lt;/span&gt;&lt;div&gt;&lt;font color=&quot;#333333&quot;&gt;02_create_config_file.py&lt;/font&gt;&lt;br&gt;&lt;/div&gt;&lt;div&gt;&lt;font color=&quot;#333333&quot;&gt;determine_status.py&lt;br&gt;&lt;/font&gt;&lt;/div&gt;&lt;div&gt;&lt;font color=&quot;#333333&quot;&gt;03_create_batch_files.py&lt;/font&gt;&lt;/div&gt;&lt;div&gt;&lt;font color=&quot;#333333&quot;&gt;04_update_end_date.py&lt;br&gt;&lt;/font&gt;&lt;/div&gt;" style="rounded=0;whiteSpace=wrap;html=1;fillColor=#f8cecc;strokeColor=#b85450;" parent="1" vertex="1">
          <mxGeometry x="97.5" y="670" width="212.5" height="90" as="geometry" />
        </mxCell>
        <mxCell id="rylidvbhO6okRbjTieRh-7" style="edgeStyle=orthogonalEdgeStyle;rounded=0;orthogonalLoop=1;jettySize=auto;html=1;strokeWidth=3;entryX=0;entryY=0.75;entryDx=0;entryDy=0;" edge="1" parent="1" source="syWPXiomNhrmmpA-TFZg-17" target="syWPXiomNhrmmpA-TFZg-18">
          <mxGeometry relative="1" as="geometry" />
        </mxCell>
        <mxCell id="syWPXiomNhrmmpA-TFZg-17" value="&lt;span style=&quot;color: rgb(51, 51, 51);&quot;&gt;&lt;b&gt;&lt;u&gt;1400 Deploy DB Dependencies Build&lt;/u&gt;&lt;/b&gt;&lt;/span&gt;&lt;div&gt;&lt;font color=&quot;#333333&quot;&gt;01_truncate_deploy_db_dependencies_batch.py&lt;/font&gt;&lt;br&gt;&lt;/div&gt;&lt;div&gt;&lt;font color=&quot;#333333&quot;&gt;02_insert_deploy_db_dependencies.py&lt;/font&gt;&lt;/div&gt;" style="rounded=0;whiteSpace=wrap;html=1;fillColor=#f8cecc;strokeColor=#b85450;" parent="1" vertex="1">
          <mxGeometry x="70" y="790" width="267.5" height="60" as="geometry" />
        </mxCell>
        <mxCell id="syWPXiomNhrmmpA-TFZg-18" value="&lt;span style=&quot;color: rgb(51, 51, 51);&quot;&gt;&lt;b&gt;&lt;u&gt;1500 Deploy DB Dependencies Execution&lt;/u&gt;&lt;/b&gt;&lt;/span&gt;&lt;div&gt;&lt;font color=&quot;#333333&quot;&gt;03_execute_db_dependencies.py&lt;/font&gt;&lt;br&gt;&lt;/div&gt;" style="rounded=0;whiteSpace=wrap;html=1;fillColor=#d5e8d4;strokeColor=#82b366;" parent="1" vertex="1">
          <mxGeometry x="226.25" y="1080" width="252.5" height="40" as="geometry" />
        </mxCell>
        <mxCell id="syWPXiomNhrmmpA-TFZg-27" style="edgeStyle=orthogonalEdgeStyle;rounded=0;orthogonalLoop=1;jettySize=auto;html=1;entryX=0.381;entryY=0.033;entryDx=0;entryDy=0;entryPerimeter=0;strokeWidth=3;" parent="1" source="syWPXiomNhrmmpA-TFZg-3" target="syWPXiomNhrmmpA-TFZg-5" edge="1">
          <mxGeometry relative="1" as="geometry" />
        </mxCell>
        <mxCell id="syWPXiomNhrmmpA-TFZg-51" value="" style="endArrow=none;html=1;rounded=0;strokeWidth=2;shadow=1;" parent="1" edge="1">
          <mxGeometry width="50" height="50" relative="1" as="geometry">
            <mxPoint x="60" y="80" as="sourcePoint" />
            <mxPoint x="920" y="80" as="targetPoint" />
          </mxGeometry>
        </mxCell>
        <mxCell id="syWPXiomNhrmmpA-TFZg-57" style="edgeStyle=orthogonalEdgeStyle;rounded=0;orthogonalLoop=1;jettySize=auto;html=1;entryX=0.559;entryY=0.053;entryDx=0;entryDy=0;entryPerimeter=0;strokeWidth=3;" parent="1" source="syWPXiomNhrmmpA-TFZg-10" target="syWPXiomNhrmmpA-TFZg-13" edge="1">
          <mxGeometry relative="1" as="geometry" />
        </mxCell>
        <mxCell id="syWPXiomNhrmmpA-TFZg-59" value="&lt;h1 style=&quot;margin-top: 0px;&quot;&gt;&lt;font style=&quot;font-size: 42px;&quot; color=&quot;#ff3333&quot;&gt;DMS&lt;/font&gt;&lt;/h1&gt;" style="text;html=1;whiteSpace=wrap;overflow=hidden;rounded=0;" parent="1" vertex="1">
          <mxGeometry x="292.5" y="970" width="120" height="50" as="geometry" />
        </mxCell>
        <mxCell id="syWPXiomNhrmmpA-TFZg-63" value="&lt;font style=&quot;font-size: 33px;&quot;&gt;&lt;b&gt;1&lt;/b&gt;&lt;/font&gt;" style="text;html=1;align=center;verticalAlign=middle;whiteSpace=wrap;rounded=0;" parent="1" vertex="1">
          <mxGeometry y="32.5" width="60" height="30" as="geometry" />
        </mxCell>
        <mxCell id="syWPXiomNhrmmpA-TFZg-64" value="&lt;font style=&quot;font-size: 33px;&quot;&gt;&lt;b&gt;3&lt;/b&gt;&lt;/font&gt;" style="text;html=1;align=center;verticalAlign=middle;whiteSpace=wrap;rounded=0;" parent="1" vertex="1">
          <mxGeometry y="390" width="60" height="30" as="geometry" />
        </mxCell>
        <mxCell id="syWPXiomNhrmmpA-TFZg-66" value="&lt;font style=&quot;font-size: 33px;&quot;&gt;&lt;b&gt;2&lt;/b&gt;&lt;/font&gt;" style="text;html=1;align=center;verticalAlign=middle;whiteSpace=wrap;rounded=0;" parent="1" vertex="1">
          <mxGeometry y="190" width="60" height="30" as="geometry" />
        </mxCell>
        <mxCell id="syWPXiomNhrmmpA-TFZg-68" value="&lt;font style=&quot;font-size: 33px;&quot;&gt;&lt;b&gt;4&lt;/b&gt;&lt;/font&gt;" style="text;html=1;align=center;verticalAlign=middle;whiteSpace=wrap;rounded=0;" parent="1" vertex="1">
          <mxGeometry y="620" width="60" height="30" as="geometry" />
        </mxCell>
        <mxCell id="syWPXiomNhrmmpA-TFZg-70" value="&lt;font style=&quot;font-size: 33px;&quot;&gt;&lt;b&gt;5&lt;/b&gt;&lt;/font&gt;" style="text;html=1;align=center;verticalAlign=middle;whiteSpace=wrap;rounded=0;" parent="1" vertex="1">
          <mxGeometry y="890" width="60" height="30" as="geometry" />
        </mxCell>
        <mxCell id="syWPXiomNhrmmpA-TFZg-71" value="&lt;font style=&quot;font-size: 33px;&quot;&gt;&lt;b&gt;6&lt;/b&gt;&lt;/font&gt;" style="text;html=1;align=center;verticalAlign=middle;whiteSpace=wrap;rounded=0;" parent="1" vertex="1">
          <mxGeometry y="990" width="60" height="30" as="geometry" />
        </mxCell>
        <mxCell id="syWPXiomNhrmmpA-TFZg-72" value="&lt;font style=&quot;font-size: 33px;&quot;&gt;&lt;b&gt;7&lt;/b&gt;&lt;/font&gt;" style="text;html=1;align=center;verticalAlign=middle;whiteSpace=wrap;rounded=0;" parent="1" vertex="1">
          <mxGeometry y="1085" width="60" height="30" as="geometry" />
        </mxCell>
        <mxCell id="syWPXiomNhrmmpA-TFZg-78" value="" style="edgeStyle=orthogonalEdgeStyle;rounded=0;orthogonalLoop=1;jettySize=auto;html=1;strokeWidth=3;exitX=0.5;exitY=1;exitDx=0;exitDy=0;" parent="1" source="syWPXiomNhrmmpA-TFZg-3" target="syWPXiomNhrmmpA-TFZg-7" edge="1">
          <mxGeometry relative="1" as="geometry">
            <mxPoint x="305" y="180" as="sourcePoint" />
            <mxPoint x="577" y="260" as="targetPoint" />
            <Array as="points" />
          </mxGeometry>
        </mxCell>
        <mxCell id="syWPXiomNhrmmpA-TFZg-7" value="&lt;span style=&quot;color: rgb(51, 51, 51);&quot;&gt;&lt;b&gt;&lt;u&gt;0400 Create Databases on Target&lt;/u&gt;&lt;/b&gt;&lt;/span&gt;&lt;div&gt;&lt;font color=&quot;#333333&quot;&gt;01_create_target_databases_batch_script.py&lt;/font&gt;&lt;br&gt;&lt;/div&gt;" style="rounded=0;whiteSpace=wrap;html=1;fillColor=#f8cecc;strokeColor=#b85450;" parent="1" vertex="1">
          <mxGeometry x="560" y="220" width="260" height="40" as="geometry" />
        </mxCell>
        <mxCell id="syWPXiomNhrmmpA-TFZg-89" value="" style="endArrow=none;html=1;rounded=0;" parent="1" edge="1">
          <mxGeometry width="50" height="50" relative="1" as="geometry">
            <mxPoint x="60" y="1150" as="sourcePoint" />
            <mxPoint x="60" y="10" as="targetPoint" />
          </mxGeometry>
        </mxCell>
        <mxCell id="syWPXiomNhrmmpA-TFZg-90" value="" style="endArrow=none;html=1;rounded=0;strokeWidth=2;shadow=1;" parent="1" edge="1">
          <mxGeometry width="50" height="50" relative="1" as="geometry">
            <mxPoint x="56.25" y="350" as="sourcePoint" />
            <mxPoint x="916.25" y="350" as="targetPoint" />
          </mxGeometry>
        </mxCell>
        <mxCell id="syWPXiomNhrmmpA-TFZg-91" value="" style="endArrow=none;html=1;rounded=0;strokeWidth=2;shadow=1;" parent="1" edge="1">
          <mxGeometry width="50" height="50" relative="1" as="geometry">
            <mxPoint x="60" y="450" as="sourcePoint" />
            <mxPoint x="920" y="450" as="targetPoint" />
          </mxGeometry>
        </mxCell>
        <mxCell id="syWPXiomNhrmmpA-TFZg-93" value="" style="endArrow=none;html=1;rounded=0;strokeWidth=2;shadow=1;" parent="1" edge="1">
          <mxGeometry width="50" height="50" relative="1" as="geometry">
            <mxPoint x="60" y="870" as="sourcePoint" />
            <mxPoint x="920" y="870" as="targetPoint" />
          </mxGeometry>
        </mxCell>
        <mxCell id="syWPXiomNhrmmpA-TFZg-94" value="" style="endArrow=none;html=1;rounded=0;strokeWidth=2;shadow=1;" parent="1" edge="1">
          <mxGeometry width="50" height="50" relative="1" as="geometry">
            <mxPoint x="59.99999999999999" y="960" as="sourcePoint" />
            <mxPoint x="920" y="960" as="targetPoint" />
          </mxGeometry>
        </mxCell>
        <mxCell id="syWPXiomNhrmmpA-TFZg-95" value="" style="endArrow=none;html=1;rounded=0;strokeWidth=2;shadow=1;" parent="1" edge="1">
          <mxGeometry width="50" height="50" relative="1" as="geometry">
            <mxPoint x="60" y="1050" as="sourcePoint" />
            <mxPoint x="920" y="1050" as="targetPoint" />
          </mxGeometry>
        </mxCell>
        <mxCell id="syWPXiomNhrmmpA-TFZg-96" value="" style="endArrow=none;html=1;rounded=0;strokeWidth=2;shadow=1;" parent="1" edge="1">
          <mxGeometry width="50" height="50" relative="1" as="geometry">
            <mxPoint x="56.25" y="1150" as="sourcePoint" />
            <mxPoint x="916.25" y="1150" as="targetPoint" />
          </mxGeometry>
        </mxCell>
        <mxCell id="rylidvbhO6okRbjTieRh-1" value="" style="endArrow=none;html=1;rounded=0;strokeWidth=2;shadow=1;" edge="1" parent="1">
          <mxGeometry width="50" height="50" relative="1" as="geometry">
            <mxPoint x="60" y="10" as="sourcePoint" />
            <mxPoint x="920" y="10" as="targetPoint" />
          </mxGeometry>
        </mxCell>
        <mxCell id="rylidvbhO6okRbjTieRh-2" value="" style="endArrow=none;html=1;rounded=0;" edge="1" parent="1">
          <mxGeometry width="50" height="50" relative="1" as="geometry">
            <mxPoint x="920" y="1150" as="sourcePoint" />
            <mxPoint x="920" y="10" as="targetPoint" />
          </mxGeometry>
        </mxCell>
        <mxCell id="rylidvbhO6okRbjTieRh-6" style="edgeStyle=orthogonalEdgeStyle;rounded=0;orthogonalLoop=1;jettySize=auto;html=1;entryX=0;entryY=0.75;entryDx=0;entryDy=0;strokeWidth=3;" edge="1" parent="1" source="syWPXiomNhrmmpA-TFZg-13" target="syWPXiomNhrmmpA-TFZg-14">
          <mxGeometry relative="1" as="geometry" />
        </mxCell>
      </root>
    </mxGraphModel>
  </diagram>
</mxfile>
